<svg xmlns="http://www.w3.org/2000/svg" xmlns:xlink="http://www.w3.org/1999/xlink" width="48" height="51" viewBox="0 0 48 51"><defs><path id="a" d="M339.2 608.2c0 1.5-1.15 4.56-2.84 7.12v4.14h.13l16.58 8.64v11.05H308.5v-10.87l16.71-8.76v-4.33c-1.65-2.54-2.77-5.54-2.77-6.99 0-.93.06-1.79.17-2.57.03-.64.12-1.71.44-2.98l.25-3.09.43-1.21 1.63-.69.02-.03-.69-1.29.18-1.04 1.04.09.87-.7.96-.26.3.62a13.91 13.91 0 0 1 4.3-2.01l-.25.78 3.74-1.91-.87 2 .96 1.83.43.43.61.09.26.35 2.18 3.04-1.4 1.3.61.7 1.83 1.48-.26.87-1.13 1.57H339c.12.8.18 1.68.18 2.63z"/></defs><g opacity=".5" transform="translate(-307 -590)"><use fill="#ddd" xlink:href="#a"/></g></svg>